<?xml version="1.0" encoding="utf-8"?>
<!-- Generator: Adobe Illustrator 17.0.0, SVG Export Plug-In . SVG Version: 6.00 Build 0)  -->
<!DOCTYPE svg PUBLIC "-//W3C//DTD SVG 1.1//EN" "http://www.w3.org/Graphics/SVG/1.1/DTD/svg11.dtd">
<svg version="1.1" id="Layer_1" xmlns="http://www.w3.org/2000/svg" xmlns:xlink="http://www.w3.org/1999/xlink" x="0px" y="0px"
	 width="128px" height="128px" viewBox="0 0 128 128" enable-background="new 0 0 128 128" xml:space="preserve">
<rect fill="#FFFFFF" width="128" height="128"/>
<polygon fill="#52A64C" points="52,77 37.718,77 43.323,82.334 8.039,117.482 11.573,120.948 46.751,85.631 52,90.951 "/>
<polygon fill="#52A64C" points="77,77 77,91.076 82.293,85.472 117.421,120.756 120.877,117.222 85.554,82.146 90.869,77 "/>
<polygon fill="#52A64C" points="77,52 91.128,52 85.524,46.605 120.808,11.425 117.274,7.944 82.172,43.254 77,37.925 "/>
<polygon fill="#52A64C" points="52,52 52,37.8 46.63,43.405 11.464,8.121 7.989,11.655 43.302,46.792 37.977,52 "/>
</svg>
