<?xml version="1.0" encoding="utf-8"?>
<!-- Generator: Adobe Illustrator 17.0.0, SVG Export Plug-In . SVG Version: 6.00 Build 0)  -->
<!DOCTYPE svg PUBLIC "-//W3C//DTD SVG 1.1//EN" "http://www.w3.org/Graphics/SVG/1.1/DTD/svg11.dtd">
<svg version="1.1" id="Layer_1" xmlns="http://www.w3.org/2000/svg" xmlns:xlink="http://www.w3.org/1999/xlink" x="0px" y="0px"
	 width="256px" height="256px" viewBox="0 0 256 256" enable-background="new 0 0 256 256" xml:space="preserve">
<g>
	<path fill="#FFFFFF" d="M0,0v256h256V0H0z M140,65.304l14.402,13.948l59.853-59.561l21.629,21.529l-59.511,59.467L190.871,115H140
		V65.304z M115,190.5l-13.967-13.967l-59.543,59.543l-21.567-21.567l59.543-59.293L65,141h50V190.5z M115,115H65.75l13.951-14.054
		l-59.558-59.63L41.678,19.75l59.23,59.543L115,64.826V115z M214.64,236.326l-59.836-59.543L140,191.25V142h50.674l-13.978,13.592
		l59.532,59.293L214.64,236.326z"/>
	<polygon fill="#52A64C" points="79.467,155.217 19.924,214.634 41.491,236.138 101.033,176.565 115,190.5 115,141 65,141 	"/>
	<polygon fill="#52A64C" points="190.674,142 140,142 140,191.25 154.804,176.783 214.515,236.326 236.166,214.759 176.665,155.592 
			"/>
	<polygon fill="#52A64C" points="41.678,19.75 20.143,41.317 79.701,100.946 65.75,115 115,115 115,64.826 100.908,79.293 	"/>
	<polygon fill="#52A64C" points="176.404,100.685 235.946,41.219 214.38,19.69 154.402,79.251 140,65.304 140,115 190.871,115 	"/>
</g>
</svg>
